<svg width="24" height="24" viewBox="0 0 24 24" fill="none" xmlns="http://www.w3.org/2000/svg">
<g clip-path="url(#clip0_10273_211633)">
<path d="M16.5 14C14.567 14 13 12.433 13 10.5C13 8.567 14.567 7 16.5 7C18.433 7 20 8.567 20 10.5C20 12.433 18.433 14 16.5 14Z" stroke="#1F1F1F" stroke-width="2" stroke-linecap="round" stroke-linejoin="round"/>
<path d="M7.5 9C5.567 9 4 7.433 4 5.5C4 3.567 5.567 2 7.5 2C9.433 2 11 3.567 11 5.5C11 7.433 9.433 9 7.5 9Z" stroke="#1F1F1F" stroke-width="2" stroke-linecap="round" stroke-linejoin="round"/>
<path d="M10 22V20.3333C10 19.4493 10.3424 18.6014 10.9519 17.9763C11.5614 17.3512 12.388 17 13.25 17H19.75C20.612 17 21.4386 17.3512 22.0481 17.9763C22.6576 18.6014 23 19.4493 23 20.3333V22" stroke="#1F1F1F" stroke-width="2" stroke-linecap="round" stroke-linejoin="round"/>
<path d="M1 17V15.3333C1 14.4493 1.34241 13.6014 1.9519 12.9763C2.5614 12.3512 3.38805 12 4.25 12H9.5" stroke="#1F1F1F" stroke-width="2" stroke-linecap="round" stroke-linejoin="round"/>
</g>
<defs>
<clipPath id="clip0_10273_211633">
<rect width="24" height="24" fill="white"/>
</clipPath>
</defs>
</svg>
