<svg width="24" height="25" viewBox="0 0 24 25" fill="none" xmlns="http://www.w3.org/2000/svg">
<g id="Icons-Set">
<path id="Vector" d="M16.6168 4.25204C16.8552 4.01361 17.1383 3.82448 17.4498 3.69545C17.7613 3.56641 18.0952 3.5 18.4324 3.5C18.7696 3.5 19.1035 3.56641 19.415 3.69545C19.7265 3.82448 20.0095 4.01361 20.248 4.25204C20.4864 4.49046 20.6755 4.77351 20.8046 5.08503C20.9336 5.39655 21 5.73043 21 6.06761C21 6.40479 20.9336 6.73868 20.8046 7.05019C20.6755 7.36171 20.4864 7.64476 20.248 7.88319L7.99283 20.1383L3 21.5L4.36168 16.5072L16.6168 4.25204Z" stroke="#1F1F1F" stroke-width="2" stroke-linecap="round" stroke-linejoin="round"/>
<path id="Vector 268" d="M14.5 7.5L17 10" stroke="#1F1F1F" stroke-width="2.4" stroke-linecap="square"/>
</g>
</svg>
