<svg width="24" height="24" viewBox="0 0 24 24" fill="none" xmlns="http://www.w3.org/2000/svg">
<path d="M3 9.10272C3 8.49211 3.27894 7.91495 3.7574 7.53557L10.7574 1.98526C11.4853 1.40812 12.5147 1.40812 13.2426 1.98526L20.2426 7.53557C20.7211 7.91495 21 8.49211 21 9.10272V19.35C21 19.8908 20.7893 20.4094 20.4142 20.7917C20.0391 21.1741 19.5304 21.3889 19 21.3889H5C4.46957 21.3889 3.96086 21.1741 3.58579 20.7917C3.21071 20.4094 3 19.8908 3 19.35V9.10272Z" stroke="#1F1F1F" stroke-width="2" stroke-linecap="round" stroke-linejoin="round"/>
<path d="M7 21V12C7 10.8954 7.89543 10 9 10H15C16.1046 10 17 10.8954 17 12V21" stroke="#1F1F1F" stroke-width="2" stroke-linecap="round" stroke-linejoin="round"/>
<path d="M10 13C9.44772 13 9 13.4477 9 14C9 14.5523 9.44772 15 10 15V13ZM17 13H10V15H17V13Z" fill="#1F1F1F"/>
<path d="M10 16.5C9.44772 16.5 9 16.9477 9 17.5C9 18.0523 9.44772 18.5 10 18.5V16.5ZM17 16.5H10V18.5H17V16.5Z" fill="#1F1F1F"/>
</svg>
